<?xml version="1.0" encoding="UTF-8" ?>
<!DOCTYPE svg PUBLIC "-//W3C//DTD SVG 1.1//EN" "http://www.w3.org/Graphics/SVG/1.1/DTD/svg11.dtd">
<svg width="301pt" height="111pt" viewBox="0 0 301 111" version="1.1" xmlns="http://www.w3.org/2000/svg">
<path fill="#ffffff" d=" M 0.00 0.00 L 301.00 0.00 L 301.00 111.00 L 290.45 111.00 C 293.06 110.42 295.85 109.76 297.81 107.81 C 300.96 104.85 301.66 98.94 298.03 96.07 C 294.46 93.33 289.61 93.28 285.90 90.79 C 284.35 88.57 286.69 86.11 288.95 85.97 C 291.95 85.73 294.65 87.30 297.54 87.78 C 298.59 86.63 299.49 85.34 300.43 84.09 C 294.90 79.14 285.28 78.09 280.11 84.04 C 277.61 87.23 277.74 92.40 280.89 95.12 C 284.31 97.94 289.13 97.93 292.73 100.43 C 294.65 102.17 293.05 105.26 290.80 105.72 C 287.15 106.96 283.72 104.71 280.54 103.24 C 279.40 104.68 278.31 106.17 277.26 107.69 C 280.02 109.08 282.88 110.30 285.90 111.00 L 263.50 111.00 C 267.44 110.47 271.01 108.60 273.96 105.98 C 273.00 104.71 272.04 103.45 271.08 102.18 C 266.91 103.70 262.24 106.44 257.81 104.18 C 254.64 102.75 253.93 99.08 253.06 96.08 C 260.08 95.86 267.10 96.18 274.11 95.84 C 274.14 91.95 274.06 87.66 271.37 84.55 C 265.22 77.16 251.57 78.97 247.58 87.75 C 244.64 94.03 245.62 102.39 250.76 107.27 C 252.97 109.39 255.99 110.29 258.90 111.00 L 232.13 111.00 C 232.19 105.30 232.04 99.61 232.14 93.92 C 232.00 91.45 233.29 88.99 235.41 87.72 C 237.57 86.55 240.12 87.25 242.45 87.27 C 242.72 84.86 242.94 82.44 243.15 80.03 C 240.91 80.08 238.59 79.82 236.43 80.56 C 234.31 81.34 233.05 83.33 231.67 84.99 C 231.39 83.42 231.15 81.84 230.70 80.32 C 228.69 79.96 226.63 79.97 224.60 79.87 C 224.60 90.24 224.60 100.62 224.60 111.00 L 210.38 111.00 C 214.12 110.36 217.40 108.39 220.17 105.87 C 219.14 104.66 218.12 103.45 217.09 102.24 C 213.33 104.21 208.33 106.73 204.52 103.44 C 200.56 99.55 200.55 92.26 203.95 88.01 C 207.56 84.32 212.92 86.50 216.91 88.28 C 217.87 86.95 218.81 85.62 219.77 84.29 C 214.71 79.71 206.96 78.47 200.96 81.94 C 193.77 86.05 192.42 96.12 195.60 103.20 C 197.34 107.44 201.48 110.13 205.86 111.00 L 189.13 111.00 C 189.06 104.31 189.26 97.62 189.09 90.94 C 189.10 86.61 186.54 82.24 182.34 80.79 C 176.27 78.54 169.73 81.03 164.71 84.57 C 165.92 85.95 166.53 88.94 168.89 88.30 C 172.29 87.27 175.90 84.81 179.52 86.52 C 181.91 87.61 181.64 90.62 182.21 92.77 C 176.15 93.38 168.83 93.50 164.70 98.70 C 161.36 103.49 164.93 110.56 170.71 111.00 L 158.47 111.00 C 158.41 104.34 158.56 97.67 158.44 91.01 C 158.38 87.32 157.00 83.23 153.57 81.38 C 148.82 78.78 142.72 79.63 138.80 83.36 C 138.21 82.28 137.81 81.08 136.97 80.17 C 135.19 79.95 133.39 79.95 131.60 79.87 C 131.60 90.25 131.60 100.62 131.60 111.00 L 115.51 111.00 C 119.45 110.46 123.01 108.59 125.97 105.99 C 125.00 104.72 124.04 103.45 123.07 102.18 C 118.90 103.71 114.23 106.44 109.79 104.18 C 106.63 102.75 105.94 99.07 105.06 96.08 C 112.06 95.86 119.06 96.17 126.05 95.85 C 126.18 91.96 126.06 87.68 123.39 84.57 C 117.24 77.14 103.52 78.97 99.56 87.79 C 96.65 94.07 97.63 102.40 102.76 107.26 C 104.97 109.39 108.00 110.29 110.90 111.00 L 83.50 111.00 C 87.44 110.47 91.01 108.59 93.97 105.98 C 93.00 104.71 92.04 103.45 91.08 102.18 C 86.91 103.70 82.25 106.43 77.81 104.19 C 74.64 102.76 73.93 99.08 73.06 96.08 C 80.07 95.86 87.09 96.18 94.10 95.84 C 94.15 91.96 94.06 87.69 91.39 84.58 C 85.25 77.14 71.52 78.96 67.55 87.80 C 64.65 94.07 65.63 102.38 70.74 107.25 C 72.96 109.38 75.99 110.29 78.91 111.00 L 53.13 111.00 C 53.19 105.31 53.04 99.62 53.14 93.94 C 53.00 91.45 54.29 88.98 56.43 87.70 C 58.59 86.57 61.12 87.25 63.45 87.27 C 63.72 84.86 63.95 82.44 64.16 80.03 C 61.92 80.09 59.59 79.82 57.43 80.56 C 55.31 81.34 54.05 83.33 52.66 84.99 C 52.39 83.43 52.16 81.85 51.71 80.33 C 49.70 79.96 47.64 79.97 45.61 79.86 C 45.60 90.24 45.60 100.62 45.60 111.00 L 26.77 111.00 C 30.95 110.37 34.95 108.93 38.61 106.83 C 38.59 100.89 38.60 94.95 38.60 89.01 C 33.73 89.00 28.85 88.97 23.97 89.05 C 24.14 91.04 24.32 93.04 24.55 95.04 C 26.78 95.01 29.02 95.00 31.26 94.98 C 31.27 97.75 31.28 100.51 31.29 103.28 C 26.14 105.37 19.97 105.95 15.06 102.94 C 7.94 98.64 6.75 88.32 10.51 81.42 C 14.04 75.07 22.72 73.45 29.05 76.17 C 31.00 76.87 32.75 78.21 34.84 78.45 C 36.76 77.59 37.46 75.18 38.77 73.64 C 28.86 65.22 11.50 65.95 3.84 77.00 C -1.41 84.92 -1.00 96.51 5.38 103.70 C 9.21 108.10 14.95 110.19 20.59 111.00 L 0.00 111.00 L 0.00 0.00 Z" />
<path fill="#fcaf29" d=" M 148.30 5.58 C 152.23 3.30 156.41 0.91 161.12 1.04 C 166.38 1.19 171.93 0.30 176.89 2.51 C 182.44 4.55 186.80 8.78 190.40 13.35 C 195.02 20.89 197.34 30.49 193.72 38.93 C 187.49 35.11 182.59 29.64 176.88 25.17 C 166.30 17.24 152.20 16.33 139.66 19.12 L 137.82 18.66 C 139.80 13.22 144.32 9.52 148.30 5.58 Z" />
<path fill="#009244" d=" M 139.66 19.12 C 152.20 16.33 166.30 17.24 176.88 25.17 C 182.59 29.64 187.49 35.11 193.72 38.93 C 203.90 46.19 217.03 48.15 229.22 46.42 C 235.10 45.82 240.83 44.30 246.62 43.14 C 235.04 47.83 222.46 51.60 209.86 49.65 C 200.64 48.24 192.00 44.01 184.82 38.13 C 180.28 34.71 176.68 30.14 171.79 27.17 C 163.02 21.44 152.04 20.12 141.82 21.47 C 138.34 21.95 134.68 22.24 131.62 24.13 C 134.97 25.16 138.56 25.59 141.65 27.36 C 146.89 30.25 150.56 35.21 153.49 40.30 C 154.05 41.41 154.12 42.98 155.47 43.49 C 164.08 48.26 171.43 55.31 180.95 58.37 C 190.19 61.30 200.25 62.79 209.85 60.89 C 208.51 61.45 207.32 62.38 205.89 62.68 C 196.27 63.26 186.33 63.81 177.11 60.43 C 166.40 57.17 158.45 48.35 147.69 45.24 C 138.35 42.74 128.61 44.92 119.52 47.41 C 106.01 51.32 92.04 53.39 78.06 54.61 C 92.48 51.56 106.73 47.68 120.71 43.01 C 130.42 39.96 141.12 38.25 150.98 41.60 C 151.45 41.05 151.92 40.51 152.38 39.96 C 148.23 35.44 143.63 30.85 137.47 29.31 C 130.23 27.72 122.80 29.42 115.92 31.75 C 100.17 37.08 85.43 45.33 69.06 48.84 C 62.10 50.62 54.92 51.09 47.76 51.31 C 46.69 51.32 45.73 50.79 44.75 50.44 C 54.94 50.14 64.68 46.69 74.23 43.41 C 89.76 37.77 104.25 29.21 120.52 25.66 C 127.23 24.52 133.14 20.91 139.66 19.12 Z" />
<path fill="#009244" d=" M 3.84 77.00 C 11.50 65.95 28.86 65.22 38.77 73.64 C 37.46 75.18 36.76 77.59 34.84 78.45 C 32.75 78.21 31.00 76.87 29.05 76.17 C 22.72 73.45 14.04 75.07 10.51 81.42 C 6.75 88.32 7.94 98.64 15.06 102.94 C 19.97 105.95 26.14 105.37 31.29 103.28 C 31.28 100.51 31.27 97.75 31.26 94.98 C 29.02 95.00 26.78 95.01 24.55 95.04 C 24.32 93.04 24.14 91.04 23.97 89.05 C 28.85 88.97 33.73 89.00 38.60 89.01 C 38.60 94.95 38.59 100.89 38.61 106.83 C 34.95 108.93 30.95 110.37 26.77 111.00 L 20.59 111.00 C 14.95 110.19 9.21 108.10 5.38 103.70 C -1.00 96.51 -1.41 84.92 3.84 77.00 Z" />
<path fill="#009244" d=" M 45.61 79.86 C 47.64 79.97 49.70 79.96 51.71 80.33 C 52.16 81.85 52.39 83.43 52.66 84.99 C 54.05 83.33 55.31 81.34 57.43 80.56 C 59.59 79.82 61.92 80.09 64.16 80.03 C 63.95 82.44 63.72 84.86 63.45 87.27 C 61.12 87.25 58.59 86.57 56.43 87.70 C 54.29 88.98 53.00 91.45 53.14 93.94 C 53.04 99.62 53.19 105.31 53.13 111.00 L 45.60 111.00 C 45.60 100.62 45.60 90.24 45.61 79.86 Z" />
<path fill="#009244" d=" M 67.55 87.80 C 71.52 78.96 85.25 77.14 91.39 84.58 C 94.06 87.69 94.15 91.96 94.10 95.84 C 87.09 96.18 80.07 95.86 73.06 96.08 C 73.93 99.08 74.64 102.76 77.81 104.19 C 82.25 106.43 86.91 103.70 91.08 102.18 C 92.04 103.45 93.00 104.71 93.97 105.98 C 91.01 108.59 87.44 110.47 83.50 111.00 L 78.91 111.00 C 75.99 110.29 72.96 109.38 70.74 107.25 C 65.63 102.38 64.65 94.07 67.55 87.80 Z" />
<path fill="#009244" d=" M 99.56 87.79 C 103.52 78.97 117.24 77.14 123.39 84.57 C 126.06 87.68 126.18 91.96 126.05 95.85 C 119.06 96.17 112.06 95.86 105.06 96.08 C 105.94 99.07 106.63 102.75 109.79 104.18 C 114.23 106.44 118.90 103.71 123.07 102.18 C 124.04 103.45 125.00 104.72 125.97 105.99 C 123.01 108.59 119.45 110.46 115.51 111.00 L 110.90 111.00 C 108.00 110.29 104.97 109.39 102.76 107.26 C 97.63 102.40 96.65 94.07 99.56 87.79 Z" />
<path fill="#009244" d=" M 131.60 79.87 C 133.39 79.95 135.19 79.95 136.97 80.17 C 137.81 81.08 138.21 82.28 138.80 83.36 C 142.72 79.63 148.82 78.78 153.57 81.38 C 157.00 83.23 158.38 87.32 158.44 91.01 C 158.56 97.67 158.41 104.34 158.47 111.00 L 151.00 111.00 C 150.92 104.32 151.15 97.63 150.95 90.95 C 151.04 88.63 149.41 86.27 147.01 86.03 C 144.01 85.43 141.48 87.44 139.10 88.91 C 139.17 96.27 139.12 103.64 139.13 111.00 L 131.60 111.00 C 131.60 100.62 131.60 90.25 131.60 79.87 Z" />
<path fill="#009244" d=" M 164.71 84.57 C 169.73 81.03 176.27 78.54 182.34 80.79 C 186.54 82.24 189.10 86.61 189.09 90.94 C 189.26 97.62 189.06 104.31 189.13 111.00 L 184.02 111.00 C 183.51 109.73 183.06 108.44 182.61 107.16 C 180.14 108.84 177.51 110.36 174.55 111.00 L 170.71 111.00 C 164.93 110.56 161.36 103.49 164.70 98.70 C 168.83 93.50 176.15 93.38 182.21 92.77 C 181.64 90.62 181.91 87.61 179.52 86.52 C 175.90 84.81 172.29 87.27 168.89 88.30 C 166.53 88.94 165.92 85.95 164.71 84.57 Z" />
<path fill="#009244" d=" M 200.96 81.94 C 206.96 78.47 214.71 79.71 219.77 84.29 C 218.81 85.62 217.87 86.95 216.91 88.28 C 212.92 86.50 207.56 84.32 203.95 88.01 C 200.55 92.26 200.56 99.55 204.52 103.44 C 208.33 106.73 213.33 104.21 217.09 102.24 C 218.12 103.45 219.14 104.66 220.17 105.87 C 217.40 108.39 214.12 110.36 210.38 111.00 L 205.86 111.00 C 201.48 110.13 197.34 107.44 195.60 103.20 C 192.42 96.12 193.77 86.05 200.96 81.94 Z" />
<path fill="#009244" d=" M 224.60 79.87 C 226.63 79.97 228.69 79.96 230.70 80.32 C 231.15 81.84 231.39 83.42 231.67 84.99 C 233.05 83.33 234.31 81.34 236.43 80.56 C 238.59 79.82 240.91 80.08 243.15 80.03 C 242.94 82.44 242.72 84.86 242.45 87.27 C 240.12 87.25 237.57 86.55 235.41 87.72 C 233.29 88.99 232.00 91.45 232.14 93.92 C 232.04 99.61 232.19 105.30 232.13 111.00 L 224.60 111.00 C 224.60 100.62 224.60 90.24 224.60 79.87 Z" />
<path fill="#009244" d=" M 247.58 87.75 C 251.57 78.97 265.22 77.16 271.37 84.55 C 274.06 87.66 274.14 91.95 274.11 95.84 C 267.10 96.18 260.08 95.86 253.06 96.08 C 253.93 99.08 254.64 102.75 257.81 104.18 C 262.24 106.44 266.91 103.70 271.08 102.18 C 272.04 103.45 273.00 104.71 273.96 105.98 C 271.01 108.60 267.44 110.47 263.50 111.00 L 258.90 111.00 C 255.99 110.29 252.97 109.39 250.76 107.27 C 245.62 102.39 244.64 94.03 247.58 87.75 Z" />
<path fill="#009244" d=" M 280.11 84.04 C 285.28 78.09 294.90 79.14 300.43 84.09 C 299.49 85.34 298.59 86.63 297.54 87.78 C 294.65 87.30 291.95 85.73 288.95 85.97 C 286.69 86.11 284.35 88.57 285.90 90.79 C 289.61 93.28 294.46 93.33 298.03 96.07 C 301.66 98.94 300.96 104.85 297.81 107.81 C 295.85 109.76 293.06 110.42 290.45 111.00 L 285.90 111.00 C 282.88 110.30 280.02 109.08 277.26 107.69 C 278.31 106.17 279.40 104.68 280.54 103.24 C 283.72 104.71 287.15 106.96 290.80 105.72 C 293.05 105.26 294.65 102.17 292.73 100.43 C 289.13 97.93 284.31 97.94 280.89 95.12 C 277.74 92.40 277.61 87.23 280.11 84.04 Z" />
<path fill="#ffffff" d=" M 73.20 91.95 C 74.31 87.40 79.18 84.63 83.62 86.40 C 86.22 87.03 87.08 89.71 87.86 91.93 C 82.97 92.05 78.09 92.03 73.20 91.95 Z" />
<path fill="#ffffff" d=" M 105.20 91.95 C 106.27 89.03 108.33 86.05 111.77 86.01 C 115.73 85.18 119.24 88.08 119.87 91.92 C 114.98 92.05 110.09 92.03 105.20 91.95 Z" />
<path fill="#ffffff" d=" M 139.10 88.91 C 141.48 87.44 144.01 85.43 147.01 86.03 C 149.41 86.27 151.04 88.63 150.95 90.95 C 151.15 97.63 150.92 104.32 151.00 111.00 L 139.13 111.00 C 139.12 103.64 139.17 96.27 139.10 88.91 Z" />
<path fill="#ffffff" d=" M 253.20 91.95 C 254.31 87.45 259.08 84.67 263.51 86.36 C 266.16 86.96 267.08 89.67 267.86 91.93 C 262.98 92.05 258.09 92.03 253.20 91.95 Z" />
<path fill="#ffffff" d=" M 171.49 100.36 C 174.38 98.07 178.35 98.16 181.85 97.88 C 181.86 99.61 181.88 101.34 181.91 103.07 C 179.41 104.97 176.35 106.80 173.08 105.84 C 170.66 105.38 169.44 101.98 171.49 100.36 Z" />
<path fill="#ffffff" d=" M 174.55 111.00 C 177.51 110.36 180.14 108.84 182.61 107.16 C 183.06 108.44 183.51 109.73 184.02 111.00 L 174.55 111.00 Z" />
</svg>
